<svg version="1.1" xmlns="http://www.w3.org/2000/svg" viewBox="0 0 10020 560.9375" width="10020" height="560.9375">
  <!-- svg-source:excalidraw -->
  
  <defs>
    <style>
      @font-face {
        font-family: "Virgil";
        src: url("https://excalidraw.com/Virgil.woff2");
      }
      @font-face {
        font-family: "Cascadia";
        src: url("https://excalidraw.com/Cascadia.woff2");
      }
    </style>
  </defs>
  <rect x="0" y="0" width="10020" height="560.9375" fill="#fff0"></rect><g stroke-linecap="round" transform="translate(10 10) rotate(0 5000 0.5)"><path d="M-0.52 -0.26 C3022.65 -30.2, 6044.59 -29.2, 9999.32 0.22 M0.38 -0.31 C3948.03 -0.44, 7895.41 0.2, 9999.95 0.08 M10000.08 -0.06 C10000.09 0.27, 10000.05 0.48, 10000.09 0.92 M9999.97 0.01 C9999.95 0.33, 9999.98 0.72, 10000 0.99 M10000.22 1.51 C7095.77 35.76, 4193.15 34.95, -0.25 0.75 M10000.01 1.13 C7827.97 2.74, 5656.23 3.35, -0.33 0.84 M-0.04 1.01 C0 0.63, -0.06 0.15, 0.05 -0.03 M-0.04 0.95 C-0.04 0.73, -0.03 0.59, -0.05 -0.02" stroke="transparent" stroke-width="1" fill="none"></path></g><g stroke-linecap="round"><g transform="translate(565.25 542.9375) rotate(0 61.5 -1)"><path d="M0.12 -0.12 C20.5 -0.72, 102.68 -2.22, 123.02 -2.65 M-1.28 -1.23 C18.88 -1.77, 101.11 -1.36, 122.09 -1.45" stroke="#000" stroke-width="1" fill="none"></path></g><g transform="translate(565.25 542.9375) rotate(0 61.5 -1)"><path d="M93.7 8.84 C102.86 3.7, 112.89 2.94, 120.5 -3.42 M93.5 7.83 C102.98 4.67, 112.53 1.79, 122.16 -2.2" stroke="#000" stroke-width="1" fill="none"></path></g><g transform="translate(565.25 542.9375) rotate(0 61.5 -1)"><path d="M93.71 -11.68 C103.03 -9.45, 113.06 -2.83, 120.5 -3.42 M93.51 -12.69 C102.84 -8.73, 112.4 -4.5, 122.16 -2.2" stroke="#000" stroke-width="1" fill="none"></path></g></g><g transform="translate(717.25 525.9375) rotate(0 53 12.5)"><text x="0" y="18" font-family="Virgil, Segoe UI Emoji" font-size="20px" fill="#000" text-anchor="start" style="white-space: pre;" direction="ltr">Hello World</text></g></svg>